<mxfile host="app.diagrams.net" modified="2022-09-22T08:11:42.293Z" agent="5.0 (Windows NT 10.0; Win64; x64) AppleWebKit/537.36 (KHTML, like Gecko) Chrome/95.0.4638.69 Safari/537.36" etag="Lwt-E4VnxEkEPvTfnG9t" version="20.3.0" type="github">
  <diagram id="8kYJ-nq8r8b-ovHFFiFU" name="第 1 页">
    <mxGraphModel dx="1150" dy="870" grid="1" gridSize="10" guides="1" tooltips="1" connect="1" arrows="1" fold="1" page="0" pageScale="1" pageWidth="1600" pageHeight="1200" background="#FFFFFF" math="0" shadow="0">
      <root>
        <mxCell id="0" />
        <mxCell id="1" parent="0" />
        <mxCell id="-GFUyXsMZsUR_wiBzJEj-1" value="&lt;p style=&quot;line-height: 1.2;&quot;&gt;&lt;font style=&quot;font-size: 16px;&quot;&gt;VMware CDM 自动保护新增虚机&lt;/font&gt;&lt;span style=&quot;font-size: 16px; background-color: initial;&quot;&gt;业务流程&lt;/span&gt;&lt;/p&gt;" style="swimlane;html=1;childLayout=stackLayout;startSize=60;rounded=0;shadow=0;labelBackgroundColor=none;strokeWidth=1;fontFamily=Verdana;fontSize=8;align=center;glass=0;" parent="1" vertex="1">
          <mxGeometry x="430" y="211" width="980" height="990" as="geometry" />
        </mxCell>
        <mxCell id="-GFUyXsMZsUR_wiBzJEj-2" value="&lt;font style=&quot;font-size: 14px;&quot;&gt;Director&lt;/font&gt;" style="swimlane;html=1;startSize=40;" parent="-GFUyXsMZsUR_wiBzJEj-1" vertex="1">
          <mxGeometry y="60" width="360" height="930" as="geometry" />
        </mxCell>
        <mxCell id="7bVZuV0ImQlTm18iivEG-2" value="" style="edgeStyle=orthogonalEdgeStyle;rounded=0;orthogonalLoop=1;jettySize=auto;html=1;" edge="1" parent="-GFUyXsMZsUR_wiBzJEj-2" source="-GFUyXsMZsUR_wiBzJEj-4">
          <mxGeometry relative="1" as="geometry">
            <mxPoint x="150" y="199" as="targetPoint" />
          </mxGeometry>
        </mxCell>
        <mxCell id="-GFUyXsMZsUR_wiBzJEj-4" value="UI或自动任务调度" style="rounded=1;whiteSpace=wrap;html=1;shadow=0;labelBackgroundColor=none;strokeWidth=1;fontFamily=Verdana;fontSize=8;align=center;fillColor=#dae8fc;strokeColor=#6c8ebf;sketch=1;fillStyle=auto;" parent="-GFUyXsMZsUR_wiBzJEj-2" vertex="1">
          <mxGeometry x="95" y="79" width="110" height="60" as="geometry" />
        </mxCell>
        <mxCell id="-GFUyXsMZsUR_wiBzJEj-5" value="校验参数？" style="rhombus;whiteSpace=wrap;html=1;fontSize=8;fontFamily=Verdana;fillColor=#ffe6cc;strokeColor=#d79b00;rounded=1;shadow=0;labelBackgroundColor=none;strokeWidth=1;sketch=1;fillStyle=auto;" parent="-GFUyXsMZsUR_wiBzJEj-2" vertex="1">
          <mxGeometry x="110" y="427" width="80" height="80" as="geometry" />
        </mxCell>
        <mxCell id="-GFUyXsMZsUR_wiBzJEj-6" value="任务失败" style="whiteSpace=wrap;html=1;fontSize=8;fontFamily=Verdana;fillColor=#f8cecc;strokeColor=#b85450;rounded=1;shadow=0;labelBackgroundColor=none;strokeWidth=1;sketch=1;fillStyle=auto;" parent="-GFUyXsMZsUR_wiBzJEj-2" vertex="1">
          <mxGeometry x="90" y="559" width="120" height="60" as="geometry" />
        </mxCell>
        <mxCell id="-GFUyXsMZsUR_wiBzJEj-7" value="" style="edgeStyle=orthogonalEdgeStyle;rounded=0;orthogonalLoop=1;jettySize=auto;html=1;" parent="-GFUyXsMZsUR_wiBzJEj-2" source="-GFUyXsMZsUR_wiBzJEj-5" edge="1">
          <mxGeometry relative="1" as="geometry">
            <mxPoint x="150" y="558" as="targetPoint" />
          </mxGeometry>
        </mxCell>
        <mxCell id="-GFUyXsMZsUR_wiBzJEj-8" value="&lt;font color=&quot;#000000&quot;&gt;接收显示任务状态&lt;/font&gt;" style="whiteSpace=wrap;html=1;fontSize=8;fontFamily=Verdana;fillColor=#60a917;strokeColor=#2D7600;rounded=1;shadow=0;labelBackgroundColor=none;strokeWidth=1;sketch=1;fillStyle=auto;fontColor=#ffffff;" parent="-GFUyXsMZsUR_wiBzJEj-2" vertex="1">
          <mxGeometry x="90" y="646" width="120" height="60" as="geometry" />
        </mxCell>
        <mxCell id="-GFUyXsMZsUR_wiBzJEj-9" value="False" style="text;html=1;align=center;verticalAlign=middle;resizable=0;points=[];autosize=1;strokeColor=none;fillColor=none;" parent="-GFUyXsMZsUR_wiBzJEj-2" vertex="1">
          <mxGeometry x="150" y="516" width="50" height="30" as="geometry" />
        </mxCell>
        <mxCell id="7bVZuV0ImQlTm18iivEG-3" value="策略是否绑定结构体？" style="rhombus;whiteSpace=wrap;html=1;fontSize=8;fontFamily=Verdana;fillColor=#ffe6cc;strokeColor=#d79b00;rounded=1;shadow=0;labelBackgroundColor=none;strokeWidth=1;sketch=1;fillStyle=auto;" vertex="1" parent="-GFUyXsMZsUR_wiBzJEj-2">
          <mxGeometry x="110" y="199" width="80" height="80" as="geometry" />
        </mxCell>
        <mxCell id="7bVZuV0ImQlTm18iivEG-27" value="" style="edgeStyle=orthogonalEdgeStyle;rounded=0;orthogonalLoop=1;jettySize=auto;html=1;" edge="1" parent="-GFUyXsMZsUR_wiBzJEj-2" source="7bVZuV0ImQlTm18iivEG-4" target="-GFUyXsMZsUR_wiBzJEj-5">
          <mxGeometry relative="1" as="geometry" />
        </mxCell>
        <mxCell id="7bVZuV0ImQlTm18iivEG-4" value="根据绑定的结构体或者数据对象，发起备份任务" style="whiteSpace=wrap;html=1;fontSize=8;fontFamily=Verdana;fillColor=#d5e8d4;strokeColor=#82b366;rounded=1;shadow=0;labelBackgroundColor=none;strokeWidth=1;sketch=1;fillStyle=auto;" vertex="1" parent="-GFUyXsMZsUR_wiBzJEj-2">
          <mxGeometry x="90" y="326" width="120" height="60" as="geometry" />
        </mxCell>
        <mxCell id="7bVZuV0ImQlTm18iivEG-5" value="" style="edgeStyle=orthogonalEdgeStyle;rounded=0;orthogonalLoop=1;jettySize=auto;html=1;" edge="1" parent="-GFUyXsMZsUR_wiBzJEj-2" source="7bVZuV0ImQlTm18iivEG-3" target="7bVZuV0ImQlTm18iivEG-4">
          <mxGeometry relative="1" as="geometry" />
        </mxCell>
        <mxCell id="7bVZuV0ImQlTm18iivEG-6" value="No" style="text;html=1;align=center;verticalAlign=middle;resizable=0;points=[];autosize=1;strokeColor=none;fillColor=none;" vertex="1" parent="-GFUyXsMZsUR_wiBzJEj-2">
          <mxGeometry x="155" y="284" width="40" height="30" as="geometry" />
        </mxCell>
        <mxCell id="7bVZuV0ImQlTm18iivEG-7" value="检测客户端结构体下的虚机信息" style="whiteSpace=wrap;html=1;fontSize=8;fontFamily=Verdana;fillColor=#e1d5e7;strokeColor=#9673a6;rounded=1;shadow=0;labelBackgroundColor=none;strokeWidth=1;sketch=1;fillStyle=auto;perimeterSpacing=0;" vertex="1" parent="-GFUyXsMZsUR_wiBzJEj-2">
          <mxGeometry x="450" y="209" width="120" height="60" as="geometry" />
        </mxCell>
        <mxCell id="7bVZuV0ImQlTm18iivEG-9" value="" style="edgeStyle=orthogonalEdgeStyle;rounded=0;orthogonalLoop=1;jettySize=auto;html=1;" edge="1" parent="-GFUyXsMZsUR_wiBzJEj-2" source="7bVZuV0ImQlTm18iivEG-3" target="7bVZuV0ImQlTm18iivEG-7">
          <mxGeometry relative="1" as="geometry" />
        </mxCell>
        <mxCell id="7bVZuV0ImQlTm18iivEG-13" value="Yes" style="text;html=1;align=center;verticalAlign=middle;resizable=0;points=[];autosize=1;strokeColor=none;fillColor=none;" vertex="1" parent="-GFUyXsMZsUR_wiBzJEj-2">
          <mxGeometry x="260" y="209" width="40" height="30" as="geometry" />
        </mxCell>
        <mxCell id="7bVZuV0ImQlTm18iivEG-19" value="" style="endArrow=classic;html=1;rounded=0;exitX=0.5;exitY=1;exitDx=0;exitDy=0;entryX=1;entryY=0.5;entryDx=0;entryDy=0;" edge="1" parent="-GFUyXsMZsUR_wiBzJEj-2" source="7bVZuV0ImQlTm18iivEG-7" target="7bVZuV0ImQlTm18iivEG-4">
          <mxGeometry width="50" height="50" relative="1" as="geometry">
            <mxPoint x="230" y="449" as="sourcePoint" />
            <mxPoint x="280" y="399" as="targetPoint" />
            <Array as="points">
              <mxPoint x="510" y="356" />
            </Array>
          </mxGeometry>
        </mxCell>
        <mxCell id="7bVZuV0ImQlTm18iivEG-23" value="True" style="text;html=1;align=center;verticalAlign=middle;resizable=0;points=[];autosize=1;strokeColor=none;fillColor=none;" vertex="1" parent="-GFUyXsMZsUR_wiBzJEj-2">
          <mxGeometry x="250" y="438" width="50" height="30" as="geometry" />
        </mxCell>
        <mxCell id="-GFUyXsMZsUR_wiBzJEj-10" value="&lt;font style=&quot;font-size: 14px;&quot;&gt;SubEngine&lt;/font&gt;" style="swimlane;html=1;startSize=40;" parent="-GFUyXsMZsUR_wiBzJEj-1" vertex="1">
          <mxGeometry x="360" y="60" width="320" height="930" as="geometry">
            <mxRectangle x="250" y="20" width="40" height="730" as="alternateBounds" />
          </mxGeometry>
        </mxCell>
        <mxCell id="-GFUyXsMZsUR_wiBzJEj-11" value="" style="edgeStyle=orthogonalEdgeStyle;rounded=0;orthogonalLoop=1;jettySize=auto;html=1;entryX=0.5;entryY=0;entryDx=0;entryDy=0;" parent="-GFUyXsMZsUR_wiBzJEj-10" source="-GFUyXsMZsUR_wiBzJEj-12" target="-GFUyXsMZsUR_wiBzJEj-14" edge="1">
          <mxGeometry relative="1" as="geometry">
            <mxPoint x="80" y="714" as="targetPoint" />
          </mxGeometry>
        </mxCell>
        <mxCell id="-GFUyXsMZsUR_wiBzJEj-12" value="消息处理器" style="whiteSpace=wrap;html=1;fontSize=8;fontFamily=Verdana;fillColor=#e1d5e7;strokeColor=#9673a6;rounded=1;shadow=0;labelBackgroundColor=none;strokeWidth=1;sketch=1;fillStyle=auto;perimeterSpacing=0;" parent="-GFUyXsMZsUR_wiBzJEj-10" vertex="1">
          <mxGeometry x="90" y="437" width="120" height="60" as="geometry" />
        </mxCell>
        <mxCell id="-GFUyXsMZsUR_wiBzJEj-13" value="" style="edgeStyle=orthogonalEdgeStyle;rounded=0;orthogonalLoop=1;jettySize=auto;html=1;" parent="-GFUyXsMZsUR_wiBzJEj-10" source="-GFUyXsMZsUR_wiBzJEj-14" target="-GFUyXsMZsUR_wiBzJEj-15" edge="1">
          <mxGeometry relative="1" as="geometry" />
        </mxCell>
        <mxCell id="-GFUyXsMZsUR_wiBzJEj-14" value="校验参数？" style="rhombus;whiteSpace=wrap;html=1;fontSize=8;fontFamily=Verdana;fillColor=#ffe6cc;strokeColor=#d79b00;rounded=1;shadow=0;labelBackgroundColor=none;strokeWidth=1;sketch=1;fillStyle=auto;" parent="-GFUyXsMZsUR_wiBzJEj-10" vertex="1">
          <mxGeometry x="110" y="636" width="80" height="80" as="geometry" />
        </mxCell>
        <mxCell id="-GFUyXsMZsUR_wiBzJEj-15" value="&lt;span style=&quot;font-family: Helvetica; font-size: 12px;&quot;&gt;业务处理，定期推送任务状态&lt;/span&gt;" style="whiteSpace=wrap;html=1;fontSize=8;fontFamily=Verdana;fillColor=#e1d5e7;strokeColor=#9673a6;rounded=1;shadow=0;labelBackgroundColor=none;strokeWidth=1;sketch=1;fillStyle=auto;" parent="-GFUyXsMZsUR_wiBzJEj-10" vertex="1">
          <mxGeometry x="90" y="764" width="120" height="60" as="geometry" />
        </mxCell>
        <mxCell id="-GFUyXsMZsUR_wiBzJEj-16" value="返回任务是否正常发起" style="text;html=1;align=center;verticalAlign=middle;resizable=0;points=[];autosize=1;strokeColor=none;fillColor=none;" parent="-GFUyXsMZsUR_wiBzJEj-10" vertex="1">
          <mxGeometry x="-60" y="676" width="140" height="30" as="geometry" />
        </mxCell>
        <mxCell id="-GFUyXsMZsUR_wiBzJEj-18" value="任务执行成功，通知ETCD创建卷和快照" style="text;html=1;align=center;verticalAlign=middle;resizable=0;points=[];autosize=1;strokeColor=none;fillColor=none;" parent="-GFUyXsMZsUR_wiBzJEj-10" vertex="1">
          <mxGeometry x="30" y="852" width="240" height="30" as="geometry" />
        </mxCell>
        <mxCell id="7bVZuV0ImQlTm18iivEG-20" value="返回虚机信息" style="text;html=1;align=center;verticalAlign=middle;resizable=0;points=[];autosize=1;strokeColor=none;fillColor=none;" vertex="1" parent="-GFUyXsMZsUR_wiBzJEj-10">
          <mxGeometry x="-10" y="331" width="100" height="30" as="geometry" />
        </mxCell>
        <mxCell id="-GFUyXsMZsUR_wiBzJEj-19" value="&lt;span style=&quot;font-size: 14px;&quot;&gt;ETCD&lt;/span&gt;" style="swimlane;html=1;startSize=40;" parent="-GFUyXsMZsUR_wiBzJEj-1" vertex="1">
          <mxGeometry x="680" y="60" width="300" height="930" as="geometry">
            <mxRectangle x="250" y="20" width="40" height="730" as="alternateBounds" />
          </mxGeometry>
        </mxCell>
        <mxCell id="-GFUyXsMZsUR_wiBzJEj-20" value="Etcd Storage" style="whiteSpace=wrap;html=1;fontSize=8;fontFamily=Verdana;fillColor=#f8cecc;strokeColor=#b85450;rounded=1;shadow=0;labelBackgroundColor=none;strokeWidth=1;sketch=1;fillStyle=auto;" parent="-GFUyXsMZsUR_wiBzJEj-19" vertex="1">
          <mxGeometry x="105" y="847" width="120" height="60" as="geometry" />
        </mxCell>
        <mxCell id="-GFUyXsMZsUR_wiBzJEj-21" value="" style="edgeStyle=orthogonalEdgeStyle;rounded=0;orthogonalLoop=1;jettySize=auto;html=1;" parent="-GFUyXsMZsUR_wiBzJEj-1" source="-GFUyXsMZsUR_wiBzJEj-5" target="-GFUyXsMZsUR_wiBzJEj-12" edge="1">
          <mxGeometry relative="1" as="geometry" />
        </mxCell>
        <mxCell id="-GFUyXsMZsUR_wiBzJEj-22" value="" style="edgeStyle=orthogonalEdgeStyle;rounded=0;orthogonalLoop=1;jettySize=auto;html=1;" parent="-GFUyXsMZsUR_wiBzJEj-1" source="-GFUyXsMZsUR_wiBzJEj-14" target="-GFUyXsMZsUR_wiBzJEj-8" edge="1">
          <mxGeometry relative="1" as="geometry" />
        </mxCell>
        <mxCell id="-GFUyXsMZsUR_wiBzJEj-23" value="" style="edgeStyle=orthogonalEdgeStyle;rounded=0;orthogonalLoop=1;jettySize=auto;html=1;entryX=0.69;entryY=1.07;entryDx=0;entryDy=0;entryPerimeter=0;" parent="-GFUyXsMZsUR_wiBzJEj-1" source="-GFUyXsMZsUR_wiBzJEj-15" target="-GFUyXsMZsUR_wiBzJEj-8" edge="1">
          <mxGeometry relative="1" as="geometry">
            <mxPoint x="80" y="834" as="targetPoint" />
          </mxGeometry>
        </mxCell>
        <mxCell id="-GFUyXsMZsUR_wiBzJEj-24" value="" style="edgeStyle=orthogonalEdgeStyle;rounded=0;orthogonalLoop=1;jettySize=auto;html=1;entryX=0;entryY=0.5;entryDx=0;entryDy=0;" parent="-GFUyXsMZsUR_wiBzJEj-1" source="-GFUyXsMZsUR_wiBzJEj-8" target="-GFUyXsMZsUR_wiBzJEj-20" edge="1">
          <mxGeometry relative="1" as="geometry">
            <mxPoint x="130" y="984" as="targetPoint" />
            <Array as="points">
              <mxPoint x="130" y="937" />
            </Array>
          </mxGeometry>
        </mxCell>
      </root>
    </mxGraphModel>
  </diagram>
</mxfile>
